<?xml version="1.0" encoding="UTF-8"?>
<svg width="24px" height="24px" viewBox="0 0 24 24" version="1.1" xmlns="http://www.w3.org/2000/svg" xmlns:xlink="http://www.w3.org/1999/xlink">
    <!-- Generator: sketchtool 49.3 (51167) - http://www.bohemiancoding.com/sketch -->
    <title>AC2A839B-5722-4B3A-ABF4-AAC7B9E9FF0A</title>
    <desc>Created with sketchtool.</desc>
    <defs></defs>
    <g id="Login-/-Sign-up-/-Register" stroke="none" stroke-width="1" fill="none" fill-rule="evenodd">
        <g id="Login---Initial-Copy-4" transform="translate(-618.000000, -57.000000)" fill="#3B3B3B">
            <g id="Group-2" transform="translate(372.000000, 51.000000)">
                <g id="icon-close-copy" transform="translate(246.000000, 6.000000)">
                    <g id="icon-close">
                        <path d="M3.47,3.47033334 C-1.15666667,8.09700001 -1.15666667,15.5974445 3.47,20.225 C8.09666667,24.8525556 15.5971111,24.8516667 20.2246667,20.225 C24.8522222,15.5974445 24.8522222,8.0978889 20.2246667,3.47033334 C15.5971111,-1.15722221 8.09755556,-1.15633333 3.47,3.47033334 Z M19.5535556,19.5538889 C15.3037778,23.8036667 8.38911111,23.8036667 4.13933333,19.5538889 C-0.110444444,15.3041111 -0.110444444,8.38944445 4.13933333,4.13966667 C8.38911111,-0.110111103 15.3037778,-0.110111103 19.5535556,4.13966667 C23.8033333,8.38944445 23.8024444,15.3041111 19.5535556,19.5538889 Z" id="Shape" fill-rule="nonzero"></path>
                        <polygon id="Shape" fill-rule="nonzero" points="7.15533333 6.48633334 6.48511111 7.15655556 11.1766667 11.8481111 6.50733333 16.5174445 7.17755556 17.1876667 11.8468889 12.5183333 16.5162222 17.1876667 17.1864444 16.5174445 12.5171111 11.8481111 17.2086667 7.15655556 16.5384444 6.48633334 11.8468889 11.1778889"></polygon>
                    </g>
                </g>
            </g>
        </g>
    </g>
</svg>